<svg width="750" height="500" viewBox="0 0 750 500" fill="none" xmlns="http://www.w3.org/2000/svg">
<g clip-path="url(#clip0_2380_353)">
<path d="M750 0H0V500H750V0Z" fill="#3182CE"/>
<path d="M474.205 409.862C533.768 409.862 582.054 361.576 582.054 302.013C582.054 242.45 533.768 194.164 474.205 194.164C414.642 194.164 366.356 242.45 366.356 302.013C366.356 361.576 414.642 409.862 474.205 409.862Z" fill="#1A365D"/>
<path d="M188.089 453.764C217.512 453.764 241.364 429.912 241.364 400.489C241.364 371.066 217.512 347.214 188.089 347.214C158.666 347.214 134.814 371.066 134.814 400.489C134.814 429.912 158.666 453.764 188.089 453.764Z" fill="#1A365D"/>
<path d="M636.62 261.635H621.766V276.489H636.62V261.635Z" fill="#90CDF4"/>
<path d="M651.651 246.604H636.797V261.458H651.651V246.604Z" fill="#90CDF4"/>
<path d="M666.682 231.573H651.828V246.427H666.682V231.573Z" fill="#90CDF4"/>
<path d="M681.714 216.542H666.86V231.396H681.714V216.542Z" fill="#90CDF4"/>
<path d="M696.745 201.51H681.891V216.364H696.745V201.51Z" fill="#90CDF4"/>
<path d="M349.645 192.142C388.89 192.142 420.704 160.328 420.704 121.083C420.704 81.8383 388.89 50.024 349.645 50.024C310.4 50.024 278.586 81.8383 278.586 121.083C278.586 160.328 310.4 192.142 349.645 192.142Z" fill="#90CDF4"/>
<path d="M509.997 446.506C531.635 446.506 549.177 428.965 549.177 407.326C549.177 385.687 531.635 368.146 509.997 368.146C488.358 368.146 470.817 385.687 470.817 407.326C470.817 428.965 488.358 446.506 509.997 446.506Z" fill="#90CDF4"/>
<mask id="mask0_2380_353" style="mask-type:luminance" maskUnits="userSpaceOnUse" x="72" y="57" width="298" height="298">
<path d="M326.048 311.067C384.095 253.021 384.095 158.909 326.048 100.862C268.001 42.8155 173.889 42.8155 115.843 100.862C57.7961 158.909 57.796 253.021 115.843 311.067C173.889 369.114 268.001 369.114 326.048 311.067Z" fill="white"/>
</mask>
<g mask="url(#mask0_2380_353)">
<path d="M67.971 82.06C99.273 79.514 128.162 68.126 159.695 65.448C181.996 63.554 203.645 58.392 226.094 57.698C286.389 55.834 347.069 57.653 407.387 57.701" stroke="white" stroke-width="0.75" stroke-miterlimit="10"/>
<path d="M67.925 86.8821C98.92 83.8981 128.094 74.2561 159.226 71.4111C181.979 69.3321 203.692 63.2311 226.64 62.5081C286.563 60.6181 347.408 62.6831 407.386 63.1391" stroke="white" stroke-width="0.75" stroke-miterlimit="10"/>
<path d="M67.808 90.742C98.241 87.859 128.092 80.956 158.495 77.66C182.119 75.098 204.11 67.09 228.042 66.335C253.978 65.517 279.424 70.137 305.291 70.408C339.343 70.764 373.34 68.34 407.387 68.575" stroke="white" stroke-width="0.75" stroke-miterlimit="10"/>
<path d="M67.631 93.8101C97.375 91.4421 128.014 88.0391 157.546 84.1461C182.382 80.8711 204.814 70.1131 230.146 69.3541C256.153 68.5751 280.879 76.2921 306.686 77.3471C340.291 78.7211 373.8 74.0111 407.387 74.0111" stroke="white" stroke-width="0.75" stroke-miterlimit="10"/>
<path d="M67.408 96.254C96.699 94.687 127.38 94.767 156.426 90.818C182.821 87.229 205.687 72.423 232.804 71.737C259.005 71.073 282.707 82.422 308.467 84.581C341.409 87.343 374.47 79.843 407.387 79.449" stroke="white" stroke-width="0.75" stroke-miterlimit="10"/>
<path d="M67.151 98.242C95.871 97.698 126.771 102.519 155.183 97.625C183.128 92.811 206.878 74.135 235.867 73.653C262.392 73.212 284.819 88.523 310.53 92.027C342.569 96.393 375.367 85.778 407.387 84.885" stroke="white" stroke-width="0.75" stroke-miterlimit="10"/>
<path d="M66.872 99.945C95.276 100.554 125.658 110.421 153.86 104.519C183.26 98.367 208.379 75.39 239.184 75.279C266.152 75.182 287.126 94.6081 312.769 99.6101C343.708 105.645 376.445 91.766 407.387 90.322" stroke="white" stroke-width="0.75" stroke-miterlimit="10"/>
<path d="M66.585 101.529C95.003 103.371 123.972 118.426 152.506 111.448C183.364 103.901 209.989 76.9201 242.606 76.7851C269.949 76.6711 289.715 100.732 315.082 107.249C344.843 114.895 377.603 97.7561 407.387 95.7601" stroke="white" stroke-width="0.75" stroke-miterlimit="10"/>
<path d="M66.302 103.164C95.018 106.272 121.801 126.478 151.166 118.361C183.291 109.481 211.744 78.296 245.983 78.341C273.739 78.378 292.305 106.886 317.363 114.861C346.015 123.981 378.709 103.706 407.387 101.195" stroke="white" stroke-width="0.75" stroke-miterlimit="10"/>
<path d="M66.035 105.019C95.219 109.348 119.35 134.477 149.886 125.209C183.119 115.122 213.491 79.854 249.165 80.122C277.351 80.335 294.766 113.08 319.508 122.372C347.244 132.788 379.658 109.591 407.387 106.632" stroke="white" stroke-width="0.75" stroke-miterlimit="10"/>
<path d="M65.797 107.262C95.514 112.659 116.856 142.289 148.712 131.941C182.913 120.831 215.078 81.8 252.002 82.3C280.666 82.688 296.91 119.291 321.414 129.7C348.499 141.205 380.387 115.384 407.387 112.07" stroke="white" stroke-width="0.75" stroke-miterlimit="10"/>
<path d="M65.6 110.063C95.863 116.247 114.523 149.77 147.69 138.507C164.536 132.787 180.822 121.302 195.858 112.164C211.89 102.421 234.333 84.678 254.344 85.046C283.572 85.583 298.542 125.478 322.974 136.765C349.708 149.115 380.862 121.054 407.387 117.506" stroke="white" stroke-width="0.75" stroke-miterlimit="10"/>
<path d="M65.457 113.588C96.283 120.148 112.501 156.769 146.866 144.855C164.176 138.854 180.976 126.616 196.335 117.035C212.518 106.939 235.604 88.095 256.041 88.532C285.966 89.171 299.474 131.594 324.086 143.488C350.781 156.388 381.063 126.572 407.387 122.943" stroke="white" stroke-width="0.75" stroke-miterlimit="10"/>
<path d="M65.382 118.009C96.821 124.405 110.9 163.143 146.288 150.938C163.883 144.87 181.1 131.998 196.603 122.157C212.958 111.775 236.145 92.475 256.945 92.932C287.741 93.608 299.521 137.609 324.646 149.791C351.632 162.876 380.961 131.903 407.388 128.38" stroke="white" stroke-width="0.75" stroke-miterlimit="10"/>
<path d="M65.279 123.372C96.602 129.785 110.88 168.429 146.065 156.146C163.734 149.978 181.011 137.305 196.693 127.517C213.107 117.272 236.445 98.047 257.16 98.321C288.064 98.73 299.478 143.247 324.589 155.384C351.878 168.574 380.726 137.204 407.388 133.816" stroke="white" stroke-width="0.75" stroke-miterlimit="10"/>
<path d="M64.639 129.136C95.463 135.695 111.728 172.054 145.945 160.032C163.685 153.799 180.922 142.076 196.994 132.65C213.52 122.958 237.499 104.145 257.877 104.299C288.077 104.527 299.855 148.77 324.245 160.823C351.522 174.302 380.665 142.637 407.387 139.254" stroke="white" stroke-width="0.75" stroke-miterlimit="10"/>
<path d="M63.478 135.164C94.105 141.388 112.372 174.362 145.792 163.072C163.655 157.037 181.009 146.375 197.516 137.523C214.339 128.501 238.984 110.518 259.14 110.769C288.645 111.137 300.026 154.456 323.721 166.436C350.882 180.168 380.682 148.086 407.388 144.69" stroke="white" stroke-width="0.75" stroke-miterlimit="10"/>
<path d="M61.896 141.408C92.485 146.902 112.902 175.629 145.604 165.438C163.639 159.818 181.219 150.311 198.189 142.219C215.454 133.987 240.756 117.184 260.793 117.702C289.619 118.448 300.008 160.294 323.042 172.2C350.008 186.138 380.758 153.55 407.387 150.126" stroke="white" stroke-width="0.75" stroke-miterlimit="10"/>
<path d="M59.992 147.816C90.579 152.274 113.371 176.134 145.381 167.3C163.625 162.265 181.502 153.996 198.947 146.822C216.763 139.495 242.673 124.16 262.685 125.07C290.923 126.353 299.719 166.362 322.239 178.093C349.113 192.092 380.755 159.043 407.387 155.564" stroke="white" stroke-width="0.75" stroke-miterlimit="10"/>
<path d="M57.865 154.337C88.43 157.56 113.759 176.162 145.122 168.828C163.599 164.507 181.807 157.543 199.72 151.414C218.166 145.102 244.586 131.457 264.659 132.841C293.035 134.797 298.333 173.428 321.336 184.086C349.559 197.162 379.572 164.701 407.386 161.001" stroke="white" stroke-width="0.75" stroke-miterlimit="10"/>
<path d="M55.615 160.921C84.445 162.664 111.656 175.626 140.738 170.97C164.923 167.098 188.626 159.189 212.234 152.863C228.11 148.608 249.188 139.842 265.945 141.779C294.997 145.137 297.724 181.615 322.757 191.382C349.99 202.007 380.592 169.964 407.387 166.439" stroke="white" stroke-width="0.75" stroke-miterlimit="10"/>
<path d="M53.343 167.517C82.48 168.048 111.192 175.7 140.345 172.155C164.779 169.184 188.932 163.267 213.044 158.468C229.447 155.203 250.628 147.923 267.537 150.17C295.514 153.888 297.564 187.939 321.66 197.449C348.787 208.156 380.629 175.465 407.387 171.874" stroke="white" stroke-width="0.75" stroke-miterlimit="10"/>
<path d="M51.147 174.074C80.731 173.462 110.398 175.961 139.929 173.514C164.59 171.47 189.119 167.553 213.64 164.324C230.566 162.095 251.653 156.346 268.777 158.862C295.67 162.814 297.371 194.384 320.563 203.535C347.685 214.237 380.597 180.972 407.388 177.312" stroke="white" stroke-width="0.75" stroke-miterlimit="10"/>
<path d="M49.126 180.541C79.265 178.925 109.342 176.59 139.495 175.223C164.334 174.097 189.135 172.154 213.942 170.493C231.355 169.327 252.137 165.115 269.524 167.83C295.359 171.865 297.137 200.945 319.5 209.613C346.793 220.192 380.437 186.487 407.388 182.749" stroke="white" stroke-width="0.75" stroke-miterlimit="10"/>
<path d="M47.382 186.867C78.101 184.469 108.168 177.774 139.049 177.461C163.987 177.208 188.929 177.179 213.867 177.043C231.69 176.946 251.967 174.239 269.634 177.053C294.47 181.008 296.851 207.621 318.504 215.659C346.228 225.951 380.078 192.015 407.387 188.185" stroke="white" stroke-width="0.75" stroke-miterlimit="10"/>
<path d="M46.012 193.003C77.25 190.143 107.028 179.72 138.597 180.407C180.865 181.327 227.214 180.022 268.966 186.508C292.89 190.224 296.505 214.404 317.613 221.651C346.104 231.432 379.457 197.565 407.387 193.624" stroke="white" stroke-width="0.75" stroke-miterlimit="10"/>
<path d="M45.118 198.896C75.412 196.173 103.804 183.096 134.455 184.036C178.261 185.38 224.567 190.185 267.98 196.037C291.338 199.186 297.465 223.065 319.12 228.099C348.616 234.954 378.595 203.009 407.388 199.059" stroke="white" stroke-width="0.75" stroke-miterlimit="10"/>
<path d="M44.797 204.496C75.341 202.267 103.182 187.285 134.109 188.862C177.741 191.087 221.686 201.04 265.113 205.965C288.106 208.573 297.016 229.785 318.648 233.804C349.395 239.516 377.531 208.56 407.388 204.497" stroke="white" stroke-width="0.75" stroke-miterlimit="10"/>
<path d="M45.152 209.939C75.472 207.238 104.206 193.594 134.878 195.148C177.357 197.301 220.769 205.402 262.969 210.765C285.924 213.682 297.216 234.532 319.098 238.433C349.444 243.842 377.935 214.301 407.386 209.932" stroke="white" stroke-width="0.75" stroke-miterlimit="10"/>
<path d="M46.145 215.395C77.693 212.53 108.321 200.911 140.192 202.861C179.73 205.28 220.476 209.77 259.711 215.151C282.563 218.285 296.002 236.745 317.694 241.459C348.397 248.131 377.66 219.889 407.386 215.37" stroke="white" stroke-width="0.75" stroke-miterlimit="10"/>
<path d="M47.663 220.86C79.351 218.391 110.821 210.024 142.695 211.228C180.215 212.645 219.269 214.473 256.519 219.098C280.105 222.027 296.395 239.692 319.096 244.085C349.585 249.985 377.764 225.019 407.387 220.806" stroke="white" stroke-width="0.75" stroke-miterlimit="10"/>
<path d="M49.598 226.333C117.1 222.614 185.404 215.987 253.024 222.841C277.684 225.34 296.86 241.976 320.843 246.024C350.917 251.1 378.02 229.894 407.387 226.243" stroke="white" stroke-width="0.75" stroke-miterlimit="10"/>
<path d="M51.838 231.812C84.36 230.984 116.896 231.283 149.407 230.026C182.194 228.758 216.606 224.225 249.339 226.534C275.25 228.361 297.541 242.986 322.849 247.47C351.76 252.592 378.946 234.526 407.387 231.681" stroke="white" stroke-width="0.75" stroke-miterlimit="10"/>
<path d="M54.273 237.295C87.195 237.56 120.43 243.015 153.293 240.082C183.619 237.376 215.119 229.306 245.578 230.332C272.836 231.25 298.255 244.372 325.024 248.615C353.062 253.06 379.626 239.089 407.388 237.117" stroke="white" stroke-width="0.75" stroke-miterlimit="10"/>
<path d="M56.793 242.779C89.82 244.186 124.386 255.119 157.316 250.325C185.303 246.25 213.486 234.59 241.854 234.39C270.478 234.189 299.01 245.866 327.28 249.655C354.363 253.285 380.415 243.611 407.388 242.554" stroke="white" stroke-width="0.75" stroke-miterlimit="10"/>
<path d="M59.287 248.263C92.944 250.863 130.734 267.89 164.157 259.901C188.295 254.131 212.991 238.85 237.934 238.169C266.703 237.384 297.597 246.936 326.206 250.386C353.494 253.677 380.098 248.195 407.387 247.991" stroke="white" stroke-width="0.75" stroke-miterlimit="10"/>
<path d="M61.645 253.744C95.439 257.362 134.184 278.798 167.787 269.819C190.533 263.741 210.532 244.743 234.487 243.186C264.496 241.235 298.146 249.239 328.219 251.888C354.589 254.211 380.957 252.799 407.386 253.428" stroke="white" stroke-width="0.75" stroke-miterlimit="10"/>
<path d="M63.757 259.22C96.712 263.538 138.427 290.174 171.1 279.402C192.387 272.384 208.363 251.261 231.464 248.974C262.628 245.889 298.625 252.12 330.074 253.875C355.863 255.314 381.595 257.565 407.387 258.864" stroke="white" stroke-width="0.75" stroke-miterlimit="10"/>
<path d="M65.511 264.69C97.656 269.423 142.122 300.544 173.943 288.478C194.206 280.794 206.3 258.525 228.993 255.703C261.314 251.683 298.913 255.778 331.688 256.544C357.332 257.144 381.913 262.542 407.387 264.301" stroke="white" stroke-width="0.75" stroke-miterlimit="10"/>
<path d="M66.799 270.151C88.216 273.443 106.474 281.288 126.526 289.142C141.768 295.112 159.851 303.462 176.17 296.87C195.853 288.918 204.585 266.615 227.207 263.535C260.786 258.965 298.903 260.415 332.983 260.085C358.852 259.835 381.937 267.787 407.387 269.738" stroke="white" stroke-width="0.75" stroke-miterlimit="10"/>
<path d="M67.508 275.601C89.328 278.836 107.41 287.246 127.629 295.641C142.402 301.775 161.409 310.758 177.626 304.403C197.17 296.744 203.49 275.588 226.233 272.637C261.148 268.106 298.587 266.253 333.877 264.691C360.153 263.529 381.772 273.374 407.387 275.174" stroke="white" stroke-width="0.75" stroke-miterlimit="10"/>
<path d="M67.533 281.039C89.426 284.211 107.457 292.709 127.704 301.181C142.379 307.322 161.631 316.299 177.882 310.36C197.418 303.22 203.446 283.401 226.048 280.612C261.484 276.24 298.168 272.456 333.857 270.084C360.423 268.318 381.566 278.922 407.388 280.612" stroke="white" stroke-width="0.75" stroke-miterlimit="10"/>
<path d="M66.867 286.463C88.51 289.691 106.694 297.828 126.852 305.947C141.699 311.927 160.626 320.562 176.916 314.801C196.312 307.942 203.566 289.026 225.666 286.049C260.558 281.349 296.514 277.353 331.655 274.472C358.954 272.235 380.834 283.73 407.386 286.049" stroke="white" stroke-width="0.75" stroke-miterlimit="10"/>
<path d="M65.617 291.876C98.382 296.636 142.211 329.443 175.207 318.544C194.535 312.16 203.399 294.643 224.952 291.485C258.968 286.501 293.529 281.717 327.734 277.999C356.194 274.906 379.696 288.205 407.388 291.485" stroke="white" stroke-width="0.75" stroke-miterlimit="10"/>
<path d="M63.891 297.281C97.112 301.76 139.429 331.696 172.893 321.722C192.188 315.971 203.002 300.267 223.965 296.923C256.805 291.684 289.634 285.746 322.55 280.983C352.172 276.697 378.536 292.529 407.387 296.923" stroke="white" stroke-width="0.75" stroke-miterlimit="10"/>
<path d="M61.8 302.678C95.584 306.704 136.083 333.302 170.115 324.463C189.258 319.492 202.746 306.365 222.77 302.359C254.008 296.109 285.255 289.619 316.566 283.738C347.037 278.014 377.627 296.884 407.386 302.359" stroke="white" stroke-width="0.75" stroke-miterlimit="10"/>
<path d="M59.455 308.071C93.791 311.495 132.44 334.44 167.014 326.903C186.143 322.733 201.897 311.763 221.43 307.796C251.216 301.747 280.654 293.536 310.244 286.582C341.116 279.326 377.068 301.42 407.388 307.796" stroke="white" stroke-width="0.75" stroke-miterlimit="10"/>
<path d="M56.967 313.461C91.214 316.063 126.737 334.238 161.209 329.538C181.218 326.81 199.642 316.46 219.71 312.689C249.266 307.134 277.466 294.869 306.95 289.012C337.848 282.874 377.077 306.313 407.388 313.232" stroke="white" stroke-width="0.75" stroke-miterlimit="10"/>
<path d="M54.445 318.851C88.766 320.696 123.347 335.29 157.831 331.678C177.93 329.573 198.211 321.821 218.139 318.01C246.433 312.599 273.118 299.361 301.189 292.915C318.157 289.019 334.582 296.564 350.751 301.914C369.558 308.137 388.102 314.055 407.387 318.669" stroke="white" stroke-width="0.75" stroke-miterlimit="10"/>
<path d="M52.001 324.242C86.232 325.351 120.218 336.518 154.553 333.913C174.889 332.37 196.613 327.134 216.647 323.369C243.756 318.274 269.312 301.942 296.51 297.897C330.904 292.782 373.549 315.947 407.387 324.107" stroke="white" stroke-width="0.75" stroke-miterlimit="10"/>
<path d="M49.743 329.637C83.766 330.099 117.437 338.111 151.518 336.38C172.25 335.327 194.912 332.347 215.313 328.78C241.88 324.135 266.792 308.286 293.388 304.286C328.424 299.017 372.813 321.503 407.387 329.543" stroke="white" stroke-width="0.75" stroke-miterlimit="10"/>
<path d="M47.784 335.037C103.561 334.985 158.547 342.57 214.218 334.261C240.717 330.306 265.808 315.998 292.3 312.413C328.019 307.58 372.052 327.513 407.386 334.981" stroke="white" stroke-width="0.75" stroke-miterlimit="10"/>
<path d="M46.234 340.444C101.686 339.892 158.549 346.796 213.873 340.417C241.524 337.229 268.485 324.337 296.233 322.01C331.634 319.041 372.501 334.373 407.387 340.417" stroke="white" stroke-width="0.75" stroke-miterlimit="10"/>
<path d="M45.202 345.862C101.044 345.29 157.498 349.266 213.283 345.854C242.535 344.065 271.56 336.077 300.843 334.833C335.846 333.346 372.606 341.984 407.388 345.854" stroke="white" stroke-width="0.75" stroke-miterlimit="10"/>
<path d="M44.799 351.291C165.66 351.167 286.534 350.175 407.387 351.291" stroke="white" stroke-width="0.75" stroke-miterlimit="10"/>
</g>
<path d="M545.469 266.414H524.243V287.641H545.469V266.414Z" stroke="white" stroke-width="0.25" stroke-miterlimit="10"/>
<path d="M566.696 266.414H545.469V287.641H566.696V266.414Z" stroke="white" stroke-width="0.25" stroke-miterlimit="10"/>
<path d="M587.922 266.414H566.696V287.641H587.922V266.414Z" stroke="white" stroke-width="0.25" stroke-miterlimit="10"/>
<path d="M609.149 266.414H587.922V287.641H609.149V266.414Z" stroke="white" stroke-width="0.25" stroke-miterlimit="10"/>
<path d="M630.375 266.414H609.149V287.641H630.375V266.414Z" stroke="white" stroke-width="0.25" stroke-miterlimit="10"/>
<path d="M651.602 266.414H630.375V287.641H651.602V266.414Z" stroke="white" stroke-width="0.25" stroke-miterlimit="10"/>
<path d="M545.469 287.641H524.243V308.867H545.469V287.641Z" stroke="white" stroke-width="0.25" stroke-miterlimit="10"/>
<path d="M566.696 287.641H545.469V308.867H566.696V287.641Z" stroke="white" stroke-width="0.25" stroke-miterlimit="10"/>
<path d="M587.922 287.641H566.696V308.867H587.922V287.641Z" stroke="white" stroke-width="0.25" stroke-miterlimit="10"/>
<path d="M609.149 287.641H587.922V308.867H609.149V287.641Z" stroke="white" stroke-width="0.25" stroke-miterlimit="10"/>
<path d="M630.375 287.641H609.149V308.867H630.375V287.641Z" stroke="white" stroke-width="0.25" stroke-miterlimit="10"/>
<path d="M651.602 287.641H630.375V308.867H651.602V287.641Z" stroke="white" stroke-width="0.25" stroke-miterlimit="10"/>
<path d="M545.469 308.867H524.243V330.094H545.469V308.867Z" stroke="white" stroke-width="0.25" stroke-miterlimit="10"/>
<path d="M566.696 308.867H545.469V330.094H566.696V308.867Z" stroke="white" stroke-width="0.25" stroke-miterlimit="10"/>
<path d="M587.922 308.867H566.696V330.094H587.922V308.867Z" stroke="white" stroke-width="0.25" stroke-miterlimit="10"/>
<path d="M609.149 308.867H587.922V330.094H609.149V308.867Z" stroke="white" stroke-width="0.25" stroke-miterlimit="10"/>
<path d="M630.375 308.867H609.149V330.094H630.375V308.867Z" stroke="white" stroke-width="0.25" stroke-miterlimit="10"/>
<path d="M651.602 308.867H630.375V330.094H651.602V308.867Z" stroke="white" stroke-width="0.25" stroke-miterlimit="10"/>
<path d="M545.469 330.094H524.243V351.32H545.469V330.094Z" stroke="white" stroke-width="0.25" stroke-miterlimit="10"/>
<path d="M566.696 330.094H545.469V351.32H566.696V330.094Z" stroke="white" stroke-width="0.25" stroke-miterlimit="10"/>
<path d="M587.922 330.094H566.696V351.32H587.922V330.094Z" stroke="white" stroke-width="0.25" stroke-miterlimit="10"/>
<path d="M609.149 330.094H587.922V351.32H609.149V330.094Z" stroke="white" stroke-width="0.25" stroke-miterlimit="10"/>
<path d="M630.375 330.094H609.149V351.32H630.375V330.094Z" stroke="white" stroke-width="0.25" stroke-miterlimit="10"/>
<path d="M651.602 330.094H630.375V351.32H651.602V330.094Z" stroke="white" stroke-width="0.25" stroke-miterlimit="10"/>
<path d="M545.469 351.32H524.243V372.547H545.469V351.32Z" stroke="white" stroke-width="0.25" stroke-miterlimit="10"/>
<path d="M566.696 351.32H545.469V372.547H566.696V351.32Z" stroke="white" stroke-width="0.25" stroke-miterlimit="10"/>
<path d="M587.922 351.32H566.696V372.547H587.922V351.32Z" stroke="white" stroke-width="0.25" stroke-miterlimit="10"/>
<path d="M609.149 351.32H587.922V372.547H609.149V351.32Z" stroke="white" stroke-width="0.25" stroke-miterlimit="10"/>
<path d="M630.375 351.32H609.149V372.547H630.375V351.32Z" stroke="white" stroke-width="0.25" stroke-miterlimit="10"/>
<path d="M651.602 351.32H630.375V372.547H651.602V351.32Z" stroke="white" stroke-width="0.25" stroke-miterlimit="10"/>
<path d="M545.469 372.547H524.243V393.773H545.469V372.547Z" stroke="white" stroke-width="0.25" stroke-miterlimit="10"/>
<path d="M566.696 372.547H545.469V393.773H566.696V372.547Z" stroke="white" stroke-width="0.25" stroke-miterlimit="10"/>
<path d="M587.922 372.547H566.696V393.773H587.922V372.547Z" stroke="white" stroke-width="0.25" stroke-miterlimit="10"/>
<path d="M609.149 372.547H587.922V393.773H609.149V372.547Z" stroke="white" stroke-width="0.25" stroke-miterlimit="10"/>
<path d="M630.375 372.547H609.149V393.773H630.375V372.547Z" stroke="white" stroke-width="0.25" stroke-miterlimit="10"/>
<path d="M651.602 372.547H630.375V393.773H651.602V372.547Z" stroke="white" stroke-width="0.25" stroke-miterlimit="10"/>
<path d="M462.638 241.422C459.599 244.355 458.323 248.99 459.687 253.892C461.804 261.502 469.492 266.917 476.82 265.96C479.424 265.62 481.638 264.52 483.314 262.902L596.401 153.36C594.724 154.978 592.062 156.898 589.458 157.238C582.13 158.195 574.442 152.78 572.325 145.17C570.961 140.268 572.237 135.634 575.276 132.7C541.485 165.317 496.43 208.806 462.638 241.422Z" stroke="white" stroke-width="0.5" stroke-miterlimit="10"/>
<path d="M462.806 241.595C464.457 240.001 466.638 238.917 469.204 238.582C476.41 237.641 483.969 242.966 486.051 250.449C487.394 255.277 485.992 260.305 483 263.193L595.786 154.007C598.777 151.12 600.032 146.555 598.689 141.728C596.607 134.245 589.047 128.92 581.842 129.861C579.276 130.196 577.095 131.28 575.444 132.874" stroke="white" stroke-width="0.5" stroke-miterlimit="10"/>
<path d="M440.821 368.146H472.056" stroke="#D9D9D9" stroke-width="2" stroke-miterlimit="10"/>
<path d="M498.911 310.057V341.291" stroke="#D9D9D9" stroke-width="2" stroke-miterlimit="10"/>
<path d="M498.911 395.001V426.235" stroke="#D9D9D9" stroke-width="2" stroke-miterlimit="10"/>
<path d="M457.835 327.071L479.921 349.157" stroke="#D9D9D9" stroke-width="2" stroke-miterlimit="10"/>
<path d="M479.921 387.136L457.835 409.221" stroke="#D9D9D9" stroke-width="2" stroke-miterlimit="10"/>
<path d="M445.022 346.459L473.997 358.12" stroke="#D9D9D9" stroke-width="2" stroke-miterlimit="10"/>
<path d="M488.885 393.06L477.224 422.035" stroke="#D9D9D9" stroke-width="2" stroke-miterlimit="10"/>
<path d="M476.14 314.706L488.384 343.44" stroke="#D9D9D9" stroke-width="2" stroke-miterlimit="10"/>
<path d="M474.205 378.673L445.47 390.917" stroke="#D9D9D9" stroke-width="2" stroke-miterlimit="10"/>
<path d="M442.066 356.184L472.631 362.616" stroke="#D9D9D9" stroke-width="2" stroke-miterlimit="10"/>
<path d="M493.38 394.426L486.948 424.99" stroke="#D9D9D9" stroke-width="2" stroke-miterlimit="10"/>
<path d="M467.174 319.492L484.239 345.653" stroke="#D9D9D9" stroke-width="2" stroke-miterlimit="10"/>
<path d="M476.418 382.818L450.257 399.882" stroke="#D9D9D9" stroke-width="2" stroke-miterlimit="10"/>
<path d="M450.643 335.827L476.596 353.205" stroke="#D9D9D9" stroke-width="2" stroke-miterlimit="10"/>
<path d="M483.969 390.461L466.591 416.414" stroke="#D9D9D9" stroke-width="2" stroke-miterlimit="10"/>
<path d="M487.633 311.162L493.697 341.802" stroke="#D9D9D9" stroke-width="2" stroke-miterlimit="10"/>
<path d="M472.567 373.36L441.927 379.423" stroke="#D9D9D9" stroke-width="2" stroke-miterlimit="10"/>
<path d="M440.821 64.6171L452.66 76.4551" stroke="#D9D9D9" stroke-miterlimit="10"/>
<path d="M452.66 64.6171L440.821 76.4551" stroke="#D9D9D9" stroke-miterlimit="10"/>
<path d="M478.388 64.6171L490.227 76.4551" stroke="#D9D9D9" stroke-miterlimit="10"/>
<path d="M490.227 64.6171L478.388 76.4551" stroke="#D9D9D9" stroke-miterlimit="10"/>
<path d="M515.955 64.6171L527.794 76.4551" stroke="#D9D9D9" stroke-miterlimit="10"/>
<path d="M527.794 64.6171L515.955 76.4551" stroke="#D9D9D9" stroke-miterlimit="10"/>
<path d="M553.522 64.6171L565.36 76.4551" stroke="#D9D9D9" stroke-miterlimit="10"/>
<path d="M565.36 64.6171L553.522 76.4551" stroke="#D9D9D9" stroke-miterlimit="10"/>
<path d="M440.821 97.525L452.66 109.363" stroke="#D9D9D9" stroke-miterlimit="10"/>
<path d="M452.66 97.525L440.821 109.363" stroke="#D9D9D9" stroke-miterlimit="10"/>
<path d="M478.388 97.525L490.227 109.363" stroke="#D9D9D9" stroke-miterlimit="10"/>
<path d="M490.227 97.525L478.388 109.363" stroke="#D9D9D9" stroke-miterlimit="10"/>
<path d="M515.955 97.525L527.794 109.363" stroke="#D9D9D9" stroke-miterlimit="10"/>
<path d="M527.794 97.525L515.955 109.363" stroke="#D9D9D9" stroke-miterlimit="10"/>
<path d="M553.522 97.525L565.36 109.363" stroke="#D9D9D9" stroke-miterlimit="10"/>
<path d="M565.36 97.525L553.522 109.363" stroke="#D9D9D9" stroke-miterlimit="10"/>
<path d="M440.821 130.434L452.66 142.272" stroke="#D9D9D9" stroke-miterlimit="10"/>
<path d="M452.66 130.434L440.821 142.272" stroke="#D9D9D9" stroke-miterlimit="10"/>
<path d="M478.388 130.434L490.227 142.272" stroke="#D9D9D9" stroke-miterlimit="10"/>
<path d="M490.227 130.434L478.388 142.272" stroke="#D9D9D9" stroke-miterlimit="10"/>
<path d="M515.955 130.434L527.794 142.272" stroke="#D9D9D9" stroke-miterlimit="10"/>
<path d="M527.794 130.434L515.955 142.272" stroke="#D9D9D9" stroke-miterlimit="10"/>
<path d="M553.522 130.434L565.36 142.272" stroke="#D9D9D9" stroke-miterlimit="10"/>
<path d="M565.36 130.434L553.522 142.272" stroke="#D9D9D9" stroke-miterlimit="10"/>
<path d="M440.821 163.342L452.66 175.18" stroke="#D9D9D9" stroke-miterlimit="10"/>
<path d="M452.66 163.342L440.821 175.18" stroke="#D9D9D9" stroke-miterlimit="10"/>
<path d="M478.388 163.342L490.227 175.18" stroke="#D9D9D9" stroke-miterlimit="10"/>
<path d="M490.227 163.342L478.388 175.18" stroke="#D9D9D9" stroke-miterlimit="10"/>
<path d="M515.955 163.342L527.794 175.18" stroke="#D9D9D9" stroke-miterlimit="10"/>
<path d="M527.794 163.342L515.955 175.18" stroke="#D9D9D9" stroke-miterlimit="10"/>
<path d="M553.522 163.342L565.36 175.18" stroke="#D9D9D9" stroke-miterlimit="10"/>
<path d="M565.36 163.342L553.522 175.18" stroke="#D9D9D9" stroke-miterlimit="10"/>
<path d="M186.358 415.059C214.827 386.59 214.827 340.433 186.358 311.964C157.889 283.495 111.732 283.495 83.2627 311.964C54.7938 340.433 54.7938 386.59 83.2627 415.059C111.732 443.528 157.889 443.528 186.358 415.059Z" stroke="#D9D9D9" stroke-width="2" stroke-miterlimit="10"/>
<path d="M174.454 413.898C198.764 389.588 198.764 350.176 174.454 325.866C150.145 301.557 110.732 301.557 86.4233 325.866C62.1142 350.176 62.1142 389.588 86.4233 413.898C110.732 438.207 150.145 438.207 174.454 413.898Z" stroke="#D9D9D9" stroke-width="1.8" stroke-miterlimit="10"/>
<path d="M126.07 427.85C154.566 427.85 177.666 404.75 177.666 376.254C177.666 347.758 154.566 324.658 126.07 324.658C97.5743 324.658 74.474 347.758 74.474 376.254C74.474 404.75 97.5743 427.85 126.07 427.85Z" stroke="#D9D9D9" stroke-width="1.6" stroke-miterlimit="10"/>
<path d="M121.697 423.568C144.31 423.568 162.641 405.237 162.641 382.624C162.641 360.011 144.31 341.68 121.697 341.68C99.0842 341.68 80.753 360.011 80.753 382.624C80.753 405.237 99.0842 423.568 121.697 423.568Z" stroke="#D9D9D9" stroke-width="1.4" stroke-miterlimit="10"/>
<path d="M117.326 419.286C134.056 419.286 147.618 405.724 147.618 388.994C147.618 372.264 134.056 358.702 117.326 358.702C100.596 358.702 87.034 372.264 87.034 388.994C87.034 405.724 100.596 419.286 117.326 419.286Z" stroke="#D9D9D9" stroke-width="1.2" stroke-miterlimit="10"/>
<path d="M112.953 415.005C123.8 415.005 132.593 406.212 132.593 395.365C132.593 384.518 123.8 375.725 112.953 375.725C102.106 375.725 93.313 384.518 93.313 395.365C93.313 406.212 102.106 415.005 112.953 415.005Z" stroke="#D9D9D9" stroke-miterlimit="10"/>
<path d="M574.406 427.884L585.959 413.368" stroke="white" stroke-width="0.5" stroke-miterlimit="10"/>
<path d="M580.182 427.884L591.735 413.368" stroke="white" stroke-width="0.5" stroke-miterlimit="10"/>
<path d="M585.959 427.884L597.512 413.368" stroke="white" stroke-width="0.5" stroke-miterlimit="10"/>
<path d="M591.735 427.884L603.288 413.368" stroke="white" stroke-width="0.5" stroke-miterlimit="10"/>
<path d="M597.512 427.884L609.064 413.368" stroke="white" stroke-width="0.5" stroke-miterlimit="10"/>
<path d="M603.288 427.884L614.841 413.368" stroke="white" stroke-width="0.5" stroke-miterlimit="10"/>
<path d="M609.064 427.884L620.617 413.368" stroke="white" stroke-width="0.5" stroke-miterlimit="10"/>
<path d="M614.841 427.884L626.394 413.368" stroke="white" stroke-width="0.5" stroke-miterlimit="10"/>
<path d="M620.617 427.884L632.17 413.368" stroke="white" stroke-width="0.5" stroke-miterlimit="10"/>
<path d="M626.394 427.884L637.946 413.368" stroke="white" stroke-width="0.5" stroke-miterlimit="10"/>
<path d="M632.17 427.884L643.723 413.368" stroke="white" stroke-width="0.5" stroke-miterlimit="10"/>
<path d="M637.946 427.884L649.499 413.368" stroke="white" stroke-width="0.5" stroke-miterlimit="10"/>
<path d="M643.723 427.884L655.276 413.368" stroke="white" stroke-width="0.5" stroke-miterlimit="10"/>
<path d="M649.499 427.884L661.052 413.368" stroke="white" stroke-width="0.5" stroke-miterlimit="10"/>
<path d="M655.276 427.884L666.828 413.368" stroke="white" stroke-width="0.5" stroke-miterlimit="10"/>
<path d="M661.052 427.884L672.605 413.368" stroke="white" stroke-width="0.5" stroke-miterlimit="10"/>
<path d="M666.828 427.884L678.381 413.368" stroke="white" stroke-width="0.5" stroke-miterlimit="10"/>
<path d="M672.605 427.884L684.158 413.368" stroke="white" stroke-width="0.5" stroke-miterlimit="10"/>
<path d="M678.381 427.884L689.934 413.368" stroke="white" stroke-width="0.5" stroke-miterlimit="10"/>
<path d="M423.771 338.347C446.498 315.621 446.498 278.773 423.771 256.046C401.044 233.32 364.197 233.32 341.47 256.046C318.743 278.773 318.743 315.621 341.47 338.347C364.197 361.074 401.044 361.074 423.771 338.347Z" stroke="#D9D9D9" stroke-miterlimit="10"/>
<path d="M382.625 292.379V302.013" stroke="#D9D9D9" stroke-miterlimit="10"/>
<path d="M387.443 297.196H377.808" stroke="#D9D9D9" stroke-miterlimit="10"/>
<mask id="mask1_2380_353" style="mask-type:luminance" maskUnits="userSpaceOnUse" x="261" y="362" width="77" height="77">
<path d="M316.96 362.486L299.58 379.866L282.201 362.486L261.578 383.109L278.958 400.489L261.578 417.868L282.201 438.491L299.58 421.111L316.96 438.491L337.583 417.868L320.203 400.489L337.583 383.109L316.96 362.486Z" fill="white"/>
</mask>
<g mask="url(#mask1_2380_353)">
<path d="M249.376 408.793L289.022 331.784" stroke="#D9D9D9" stroke-miterlimit="10"/>
</g>
<mask id="mask2_2380_353" style="mask-type:luminance" maskUnits="userSpaceOnUse" x="261" y="362" width="77" height="77">
<path d="M316.96 362.486L299.58 379.866L282.201 362.486L261.578 383.109L278.958 400.489L261.578 417.868L282.201 438.491L299.58 421.111L316.96 438.491L337.583 417.868L320.203 400.489L337.583 383.109L316.96 362.486Z" fill="white"/>
</mask>
<g mask="url(#mask2_2380_353)">
<path d="M253.535 412.952L293.181 335.943" stroke="#D9D9D9" stroke-miterlimit="10"/>
</g>
<mask id="mask3_2380_353" style="mask-type:luminance" maskUnits="userSpaceOnUse" x="261" y="362" width="77" height="77">
<path d="M316.96 362.486L299.58 379.866L282.201 362.486L261.578 383.109L278.958 400.489L261.578 417.868L282.201 438.491L299.58 421.111L316.96 438.491L337.583 417.868L320.203 400.489L337.583 383.109L316.96 362.486Z" fill="white"/>
</mask>
<g mask="url(#mask3_2380_353)">
<path d="M257.694 417.111L297.34 340.102" stroke="#D9D9D9" stroke-miterlimit="10"/>
</g>
<mask id="mask4_2380_353" style="mask-type:luminance" maskUnits="userSpaceOnUse" x="261" y="362" width="77" height="77">
<path d="M316.96 362.486L299.58 379.866L282.201 362.486L261.578 383.109L278.958 400.489L261.578 417.868L282.201 438.491L299.58 421.111L316.96 438.491L337.583 417.868L320.203 400.489L337.583 383.109L316.96 362.486Z" fill="white"/>
</mask>
<g mask="url(#mask4_2380_353)">
<path d="M261.853 421.27L301.499 344.261" stroke="#D9D9D9" stroke-miterlimit="10"/>
</g>
<mask id="mask5_2380_353" style="mask-type:luminance" maskUnits="userSpaceOnUse" x="261" y="362" width="77" height="77">
<path d="M316.96 362.486L299.58 379.866L282.201 362.486L261.578 383.109L278.958 400.489L261.578 417.868L282.201 438.491L299.58 421.111L316.96 438.491L337.583 417.868L320.203 400.489L337.583 383.109L316.96 362.486Z" fill="white"/>
</mask>
<g mask="url(#mask5_2380_353)">
<path d="M266.012 425.429L305.658 348.42" stroke="#D9D9D9" stroke-miterlimit="10"/>
</g>
<mask id="mask6_2380_353" style="mask-type:luminance" maskUnits="userSpaceOnUse" x="261" y="362" width="77" height="77">
<path d="M316.96 362.486L299.58 379.866L282.201 362.486L261.578 383.109L278.958 400.489L261.578 417.868L282.201 438.491L299.58 421.111L316.96 438.491L337.583 417.868L320.203 400.489L337.583 383.109L316.96 362.486Z" fill="white"/>
</mask>
<g mask="url(#mask6_2380_353)">
<path d="M270.171 429.588L309.817 352.579" stroke="#D9D9D9" stroke-miterlimit="10"/>
</g>
<mask id="mask7_2380_353" style="mask-type:luminance" maskUnits="userSpaceOnUse" x="261" y="362" width="77" height="77">
<path d="M316.96 362.486L299.58 379.866L282.201 362.486L261.578 383.109L278.958 400.489L261.578 417.868L282.201 438.491L299.58 421.111L316.96 438.491L337.583 417.868L320.203 400.489L337.583 383.109L316.96 362.486Z" fill="white"/>
</mask>
<g mask="url(#mask7_2380_353)">
<path d="M274.33 433.747L313.976 356.738" stroke="#D9D9D9" stroke-miterlimit="10"/>
</g>
<mask id="mask8_2380_353" style="mask-type:luminance" maskUnits="userSpaceOnUse" x="261" y="362" width="77" height="77">
<path d="M316.96 362.486L299.58 379.866L282.201 362.486L261.578 383.109L278.958 400.489L261.578 417.868L282.201 438.491L299.58 421.111L316.96 438.491L337.583 417.868L320.203 400.489L337.583 383.109L316.96 362.486Z" fill="white"/>
</mask>
<g mask="url(#mask8_2380_353)">
<path d="M278.489 437.906L318.135 360.897" stroke="#D9D9D9" stroke-miterlimit="10"/>
</g>
<mask id="mask9_2380_353" style="mask-type:luminance" maskUnits="userSpaceOnUse" x="261" y="362" width="77" height="77">
<path d="M316.96 362.486L299.58 379.866L282.201 362.486L261.578 383.109L278.958 400.489L261.578 417.868L282.201 438.491L299.58 421.111L316.96 438.491L337.583 417.868L320.203 400.489L337.583 383.109L316.96 362.486Z" fill="white"/>
</mask>
<g mask="url(#mask9_2380_353)">
<path d="M282.648 442.065L322.294 365.056" stroke="#D9D9D9" stroke-miterlimit="10"/>
</g>
<mask id="mask10_2380_353" style="mask-type:luminance" maskUnits="userSpaceOnUse" x="261" y="362" width="77" height="77">
<path d="M316.96 362.486L299.58 379.866L282.201 362.486L261.578 383.109L278.958 400.489L261.578 417.868L282.201 438.491L299.58 421.111L316.96 438.491L337.583 417.868L320.203 400.489L337.583 383.109L316.96 362.486Z" fill="white"/>
</mask>
<g mask="url(#mask10_2380_353)">
<path d="M286.807 446.224L326.453 369.215" stroke="#D9D9D9" stroke-miterlimit="10"/>
</g>
<mask id="mask11_2380_353" style="mask-type:luminance" maskUnits="userSpaceOnUse" x="261" y="362" width="77" height="77">
<path d="M316.96 362.486L299.58 379.866L282.201 362.486L261.578 383.109L278.958 400.489L261.578 417.868L282.201 438.491L299.58 421.111L316.96 438.491L337.583 417.868L320.203 400.489L337.583 383.109L316.96 362.486Z" fill="white"/>
</mask>
<g mask="url(#mask11_2380_353)">
<path d="M290.966 450.383L330.612 373.374" stroke="#D9D9D9" stroke-miterlimit="10"/>
</g>
<mask id="mask12_2380_353" style="mask-type:luminance" maskUnits="userSpaceOnUse" x="261" y="362" width="77" height="77">
<path d="M316.96 362.486L299.58 379.866L282.201 362.486L261.578 383.109L278.958 400.489L261.578 417.868L282.201 438.491L299.58 421.111L316.96 438.491L337.583 417.868L320.203 400.489L337.583 383.109L316.96 362.486Z" fill="white"/>
</mask>
<g mask="url(#mask12_2380_353)">
<path d="M295.125 454.542L334.771 377.533" stroke="#D9D9D9" stroke-miterlimit="10"/>
</g>
<mask id="mask13_2380_353" style="mask-type:luminance" maskUnits="userSpaceOnUse" x="261" y="362" width="77" height="77">
<path d="M316.96 362.486L299.58 379.866L282.201 362.486L261.578 383.109L278.958 400.489L261.578 417.868L282.201 438.491L299.58 421.111L316.96 438.491L337.583 417.868L320.203 400.489L337.583 383.109L316.96 362.486Z" fill="white"/>
</mask>
<g mask="url(#mask13_2380_353)">
<path d="M299.284 458.701L338.93 381.692" stroke="#D9D9D9" stroke-miterlimit="10"/>
</g>
<mask id="mask14_2380_353" style="mask-type:luminance" maskUnits="userSpaceOnUse" x="261" y="362" width="77" height="77">
<path d="M316.96 362.486L299.58 379.866L282.201 362.486L261.578 383.109L278.958 400.489L261.578 417.868L282.201 438.491L299.58 421.111L316.96 438.491L337.583 417.868L320.203 400.489L337.583 383.109L316.96 362.486Z" fill="white"/>
</mask>
<g mask="url(#mask14_2380_353)">
<path d="M303.444 462.86L343.089 385.851" stroke="#D9D9D9" stroke-miterlimit="10"/>
</g>
<mask id="mask15_2380_353" style="mask-type:luminance" maskUnits="userSpaceOnUse" x="261" y="362" width="77" height="77">
<path d="M316.96 362.486L299.58 379.866L282.201 362.486L261.578 383.109L278.958 400.489L261.578 417.868L282.201 438.491L299.58 421.111L316.96 438.491L337.583 417.868L320.203 400.489L337.583 383.109L316.96 362.486Z" fill="white"/>
</mask>
<g mask="url(#mask15_2380_353)">
<path d="M307.603 467.019L347.248 390.01" stroke="#D9D9D9" stroke-miterlimit="10"/>
</g>
<mask id="mask16_2380_353" style="mask-type:luminance" maskUnits="userSpaceOnUse" x="261" y="362" width="77" height="77">
<path d="M316.96 362.486L299.58 379.866L282.201 362.486L261.578 383.109L278.958 400.489L261.578 417.868L282.201 438.491L299.58 421.111L316.96 438.491L337.583 417.868L320.203 400.489L337.583 383.109L316.96 362.486Z" fill="white"/>
</mask>
<g mask="url(#mask16_2380_353)">
<path d="M311.762 471.178L351.408 394.169" stroke="#D9D9D9" stroke-miterlimit="10"/>
</g>
<path d="M566.278 232.088L571.563 235.393C574.797 237.415 578.902 237.416 582.136 235.394L582.137 235.393C585.372 233.371 589.476 233.371 592.71 235.394C595.944 237.416 600.048 237.417 603.282 235.396L603.29 235.391C606.523 233.371 610.626 233.371 613.859 235.391L619.153 238.699" stroke="#C6C6C6" stroke-width="3" stroke-miterlimit="10"/>
<path d="M566.278 214.45L571.563 217.755C574.797 219.777 578.902 219.778 582.136 217.756L582.137 217.755C585.372 215.733 589.476 215.733 592.71 217.756C595.944 219.778 600.048 219.779 603.282 217.758L603.29 217.753C606.523 215.732 610.626 215.732 613.859 217.753L619.153 221.061" stroke="#C6C6C6" stroke-width="3" stroke-miterlimit="10"/>
<path d="M698.97 114.369C704.983 88.9024 689.213 63.3824 663.746 57.3689C638.279 51.3554 612.759 67.1257 606.745 92.5927C600.732 118.06 616.502 143.58 641.969 149.593C667.436 155.607 692.956 139.837 698.97 114.369Z" stroke="#C6C6C6" stroke-width="3" stroke-miterlimit="10" stroke-linecap="round"/>
<path d="M652.832 135.339C670.447 135.339 684.727 121.059 684.727 103.444C684.727 85.8288 670.447 71.549 652.832 71.549C635.217 71.549 620.937 85.8288 620.937 103.444C620.937 121.059 635.217 135.339 652.832 135.339Z" stroke="#C6C6C6" stroke-width="3" stroke-miterlimit="10" stroke-linecap="round"/>
<path d="M668.826 107.252C670.908 98.4327 665.447 89.5953 656.628 87.5129C647.809 85.4305 638.972 90.8916 636.889 99.7106C634.807 108.53 640.268 117.367 649.087 119.449C657.906 121.532 666.744 116.071 668.826 107.252Z" stroke="#C6C6C6" stroke-width="3" stroke-miterlimit="10" stroke-linecap="round"/>
<path d="M42.495 116.125C43.0782 116.125 43.551 115.652 43.551 115.069C43.551 114.486 43.0782 114.013 42.495 114.013C41.9118 114.013 41.439 114.486 41.439 115.069C41.439 115.652 41.9118 116.125 42.495 116.125Z" fill="white"/>
<path d="M42.495 124.739C43.0782 124.739 43.551 124.266 43.551 123.683C43.551 123.1 43.0782 122.627 42.495 122.627C41.9118 122.627 41.439 123.1 41.439 123.683C41.439 124.266 41.9118 124.739 42.495 124.739Z" fill="white"/>
<path d="M42.495 133.352C43.0782 133.352 43.551 132.879 43.551 132.296C43.551 131.713 43.0782 131.24 42.495 131.24C41.9118 131.24 41.439 131.713 41.439 132.296C41.439 132.879 41.9118 133.352 42.495 133.352Z" fill="white"/>
<path d="M43.551 140.91C43.551 141.493 43.078 141.966 42.495 141.966C41.912 141.966 41.439 141.493 41.439 140.91C41.439 140.327 41.912 139.854 42.495 139.854C43.079 139.854 43.551 140.327 43.551 140.91Z" fill="white"/>
<path d="M43.551 149.524C43.551 150.107 43.078 150.58 42.495 150.58C41.912 150.58 41.439 150.107 41.439 149.524C41.439 148.941 41.912 148.468 42.495 148.468C43.079 148.468 43.551 148.941 43.551 149.524Z" fill="white"/>
<path d="M49.263 64.4431C49.8462 64.4431 50.319 63.9703 50.319 63.3871C50.319 62.8038 49.8462 62.3311 49.263 62.3311C48.6798 62.3311 48.207 62.8038 48.207 63.3871C48.207 63.9703 48.6798 64.4431 49.263 64.4431Z" fill="white"/>
<path d="M49.263 73.0561C49.8462 73.0561 50.319 72.5833 50.319 72.0001C50.319 71.4169 49.8462 70.9441 49.263 70.9441C48.6798 70.9441 48.207 71.4169 48.207 72.0001C48.207 72.5833 48.6798 73.0561 49.263 73.0561Z" fill="white"/>
<path d="M49.263 81.6701C49.8462 81.6701 50.319 81.1973 50.319 80.6141C50.319 80.0309 49.8462 79.5581 49.263 79.5581C48.6798 79.5581 48.207 80.0309 48.207 80.6141C48.207 81.1973 48.6798 81.6701 49.263 81.6701Z" fill="white"/>
<path d="M49.263 90.284C49.8462 90.284 50.319 89.8112 50.319 89.228C50.319 88.6448 49.8462 88.172 49.263 88.172C48.6798 88.172 48.207 88.6448 48.207 89.228C48.207 89.8112 48.6798 90.284 49.263 90.284Z" fill="white"/>
<path d="M50.319 97.841C50.319 98.424 49.846 98.897 49.263 98.897C48.68 98.897 48.207 98.424 48.207 97.841C48.207 97.258 48.68 96.785 49.263 96.785C49.846 96.785 50.319 97.258 50.319 97.841Z" fill="white"/>
<path d="M50.319 106.455C50.319 107.038 49.846 107.511 49.263 107.511C48.68 107.511 48.207 107.038 48.207 106.455C48.207 105.872 48.68 105.399 49.263 105.399C49.846 105.399 50.319 105.872 50.319 106.455Z" fill="white"/>
<path d="M49.263 116.125C49.8462 116.125 50.319 115.652 50.319 115.069C50.319 114.486 49.8462 114.013 49.263 114.013C48.6798 114.013 48.207 114.486 48.207 115.069C48.207 115.652 48.6798 116.125 49.263 116.125Z" fill="white"/>
<path d="M49.263 124.739C49.8462 124.739 50.319 124.266 50.319 123.683C50.319 123.1 49.8462 122.627 49.263 122.627C48.6798 122.627 48.207 123.1 48.207 123.683C48.207 124.266 48.6798 124.739 49.263 124.739Z" fill="white"/>
<path d="M49.263 133.352C49.8462 133.352 50.319 132.879 50.319 132.296C50.319 131.713 49.8462 131.24 49.263 131.24C48.6798 131.24 48.207 131.713 48.207 132.296C48.207 132.879 48.6798 133.352 49.263 133.352Z" fill="white"/>
<path d="M50.319 140.91C50.319 141.493 49.846 141.966 49.263 141.966C48.68 141.966 48.207 141.493 48.207 140.91C48.207 140.327 48.68 139.854 49.263 139.854C49.846 139.854 50.319 140.327 50.319 140.91Z" fill="white"/>
<path d="M50.319 149.524C50.319 150.107 49.846 150.58 49.263 150.58C48.68 150.58 48.207 150.107 48.207 149.524C48.207 148.941 48.68 148.468 49.263 148.468C49.846 148.468 50.319 148.941 50.319 149.524Z" fill="white"/>
<path d="M57.0859 63.3871C57.0859 63.9701 56.6129 64.4431 56.0299 64.4431C55.4469 64.4431 54.9739 63.9701 54.9739 63.3871C54.9739 62.8041 55.4469 62.3311 56.0299 62.3311C56.6129 62.3311 57.0859 62.8031 57.0859 63.3871Z" fill="white"/>
<path d="M57.0859 72.0001C57.0859 72.5831 56.6129 73.0561 56.0299 73.0561C55.4469 73.0561 54.9739 72.5831 54.9739 72.0001C54.9739 71.4171 55.4469 70.9441 56.0299 70.9441C56.6129 70.9441 57.0859 71.4171 57.0859 72.0001Z" fill="white"/>
<path d="M57.0859 80.6141C57.0859 81.1971 56.6129 81.6701 56.0299 81.6701C55.4469 81.6701 54.9739 81.1971 54.9739 80.6141C54.9739 80.0311 55.4469 79.5581 56.0299 79.5581C56.6129 79.5581 57.0859 80.0311 57.0859 80.6141Z" fill="white"/>
<path d="M57.0859 89.228C57.0859 89.811 56.6129 90.284 56.0299 90.284C55.4469 90.284 54.9739 89.811 54.9739 89.228C54.9739 88.645 55.4469 88.172 56.0299 88.172C56.6129 88.172 57.0859 88.645 57.0859 89.228Z" fill="white"/>
<path d="M57.0859 97.841C57.0859 98.424 56.6129 98.897 56.0299 98.897C55.4469 98.897 54.9739 98.424 54.9739 97.841C54.9739 97.258 55.4469 96.785 56.0299 96.785C56.6129 96.785 57.0859 97.258 57.0859 97.841Z" fill="white"/>
<path d="M57.0859 106.455C57.0859 107.038 56.6129 107.511 56.0299 107.511C55.4469 107.511 54.9739 107.038 54.9739 106.455C54.9739 105.872 55.4469 105.399 56.0299 105.399C56.6129 105.399 57.0859 105.872 57.0859 106.455Z" fill="white"/>
<path d="M57.0859 115.069C57.0859 115.652 56.6129 116.125 56.0299 116.125C55.4469 116.125 54.9739 115.652 54.9739 115.069C54.9739 114.486 55.4469 114.013 56.0299 114.013C56.6129 114.013 57.0859 114.486 57.0859 115.069Z" fill="white"/>
<path d="M63.8539 80.6141C63.8539 81.1971 63.3809 81.6701 62.7979 81.6701C62.2149 81.6701 61.7419 81.1971 61.7419 80.6141C61.7419 80.0311 62.2149 79.5581 62.7979 79.5581C63.3809 79.5581 63.8539 80.0311 63.8539 80.6141Z" fill="white"/>
<path d="M63.8539 89.2281C63.8539 89.8111 63.3809 90.2841 62.7979 90.2841C62.2149 90.2841 61.7419 89.8111 61.7419 89.2281C61.7419 88.6451 62.2149 88.1721 62.7979 88.1721C63.3809 88.1721 63.8539 88.6451 63.8539 89.2281Z" fill="white"/>
<path d="M63.8539 97.8412C63.8539 98.4242 63.3809 98.8972 62.7979 98.8972C62.2149 98.8972 61.7419 98.4242 61.7419 97.8412C61.7419 97.2582 62.2149 96.7852 62.7979 96.7852C63.3809 96.7852 63.8539 97.2582 63.8539 97.8412Z" fill="white"/>
<path d="M63.8539 106.455C63.8539 107.038 63.3809 107.511 62.7979 107.511C62.2149 107.511 61.7419 107.038 61.7419 106.455C61.7419 105.872 62.2149 105.399 62.7979 105.399C63.3809 105.399 63.8539 105.872 63.8539 106.455Z" fill="white"/>
<path d="M63.8539 115.069C63.8539 115.652 63.3809 116.125 62.7979 116.125C62.2149 116.125 61.7419 115.652 61.7419 115.069C61.7419 114.486 62.2149 114.013 62.7979 114.013C63.3809 114.013 63.8539 114.486 63.8539 115.069Z" fill="white"/>
<path d="M69.565 81.6701C70.1482 81.6701 70.621 81.1973 70.621 80.6141C70.621 80.0309 70.1482 79.5581 69.565 79.5581C68.9818 79.5581 68.509 80.0309 68.509 80.6141C68.509 81.1973 68.9818 81.6701 69.565 81.6701Z" fill="white"/>
<path d="M69.565 90.2841C70.1482 90.2841 70.621 89.8113 70.621 89.2281C70.621 88.6449 70.1482 88.1721 69.565 88.1721C68.9818 88.1721 68.509 88.6449 68.509 89.2281C68.509 89.8113 68.9818 90.2841 69.565 90.2841Z" fill="white"/>
<path d="M70.621 97.8412C70.621 98.4242 70.148 98.8972 69.565 98.8972C68.982 98.8972 68.509 98.4242 68.509 97.8412C68.509 97.2582 68.982 96.7852 69.565 96.7852C70.148 96.7852 70.621 97.2582 70.621 97.8412Z" fill="white"/>
<path d="M70.621 106.455C70.621 107.038 70.148 107.511 69.565 107.511C68.982 107.511 68.509 107.038 68.509 106.455C68.509 105.872 68.982 105.399 69.565 105.399C70.148 105.399 70.621 105.872 70.621 106.455Z" fill="white"/>
<path d="M69.565 116.125C70.1482 116.125 70.621 115.652 70.621 115.069C70.621 114.486 70.1482 114.013 69.565 114.013C68.9818 114.013 68.509 114.486 68.509 115.069C68.509 115.652 68.9818 116.125 69.565 116.125Z" fill="white"/>
<path d="M69.565 124.739C70.1482 124.739 70.621 124.266 70.621 123.683C70.621 123.1 70.1482 122.627 69.565 122.627C68.9818 122.627 68.509 123.1 68.509 123.683C68.509 124.266 68.9818 124.739 69.565 124.739Z" fill="white"/>
<path d="M69.565 133.352C70.1482 133.352 70.621 132.879 70.621 132.296C70.621 131.713 70.1482 131.24 69.565 131.24C68.9818 131.24 68.509 131.713 68.509 132.296C68.509 132.879 68.9818 133.352 69.565 133.352Z" fill="white"/>
</g>
<defs>
<clipPath id="clip0_2380_353">
<rect width="750" height="500" fill="white"/>
</clipPath>
</defs>
</svg>
